<svg width="114" height="19" viewBox="0 0 114 19" fill="none" xmlns="http://www.w3.org/2000/svg">
<path d="M27 15.1042V2.79153H30.2541V7.36482H35.0033V2.79153H38.2573V15.1042H35.0033V10.355H30.2541V15.1042H27Z" fill="white"/>
<path d="M40.1839 3.49511C40.1839 3.07296 40.3422 2.72117 40.6589 2.43974C40.9755 2.14658 41.3742 2 41.8549 2C42.3357 2 42.7344 2.14658 43.051 2.43974C43.3676 2.72117 43.526 3.07296 43.526 3.49511C43.526 3.90554 43.3676 4.25733 43.051 4.55049C42.7344 4.84365 42.3357 4.99023 41.8549 4.99023C41.3742 4.99023 40.9755 4.84365 40.6589 4.55049C40.3422 4.25733 40.1839 3.90554 40.1839 3.49511ZM40.3598 15.1042V5.95765H43.3501V15.1042H40.3598Z" fill="white"/>
<path d="M46.0285 13.7147C45.2428 12.8469 44.85 11.727 44.85 10.355C44.85 8.98306 45.2428 7.86319 46.0285 6.99544C46.8142 6.12769 47.7699 5.69381 48.8956 5.69381C49.7047 5.69381 50.4024 5.92834 50.9887 6.39739C51.2584 6.60847 51.4695 6.843 51.622 7.10098H51.7979V5.95765H54.7881V18.4463H46.0813V16.0717H51.7979V13.6971H51.622C51.4578 13.955 51.2467 14.1778 50.9887 14.3655C50.4142 14.7993 49.7164 15.0163 48.8956 15.0163C47.7699 15.0163 46.8142 14.5824 46.0285 13.7147ZM48.4558 8.80717C48.1041 9.18241 47.9282 9.69837 47.9282 10.355C47.9282 11.0117 48.1041 11.5277 48.4558 11.9029C48.8076 12.2782 49.2767 12.4658 49.863 12.4658C50.4493 12.4658 50.9184 12.2782 51.2702 11.9029C51.622 11.5277 51.7979 11.0117 51.7979 10.355C51.7979 9.69837 51.622 9.18241 51.2702 8.80717C50.9184 8.43192 50.4493 8.2443 49.863 8.2443C49.2767 8.2443 48.8076 8.43192 48.4558 8.80717Z" fill="white"/>
<path d="M56.5388 15.1042V2.79153H59.529V7.18892H59.7049C59.8691 6.90749 60.0802 6.66124 60.3382 6.45016C60.9362 5.94593 61.6339 5.69381 62.4313 5.69381C63.5101 5.69381 64.3486 6.02215 64.9466 6.67883C65.5564 7.32378 65.8613 8.25603 65.8613 9.47557V15.1042H62.8711V9.91531C62.8711 9.38762 62.7303 8.9772 62.4489 8.68404C62.1675 8.39088 61.7805 8.2443 61.288 8.2443C60.7838 8.2443 60.3616 8.43192 60.0215 8.80717C59.6932 9.17068 59.529 9.65733 59.529 10.2671V15.1042H56.5388Z" fill="white"/>
<path d="M72.4622 18.4463V5.95765H75.4524V7.18892H75.6283C75.7925 6.91922 76.0153 6.67296 76.2967 6.45016C76.9417 5.94593 77.6277 5.69381 78.3547 5.69381C79.4804 5.69381 80.4361 6.13941 81.2218 7.03062C82.0075 7.9101 82.4003 9.07687 82.4003 10.5309C82.4003 11.985 82.0075 13.1577 81.2218 14.0489C80.4361 14.9283 79.4804 15.3681 78.3547 15.3681C77.6159 15.3681 76.9299 15.1218 76.2967 14.6293C76.0153 14.4065 75.7925 14.1544 75.6283 13.873H75.4524V18.4463H72.4622ZM75.9801 8.84235C75.6283 9.24104 75.4524 9.80391 75.4524 10.5309C75.4524 11.258 75.6283 11.8208 75.9801 12.2195C76.3319 12.6182 76.8009 12.8176 77.3873 12.8176C77.9736 12.8176 78.4426 12.6182 78.7944 12.2195C79.1462 11.8208 79.3221 11.258 79.3221 10.5309C79.3221 9.80391 79.1462 9.24104 78.7944 8.84235C78.4426 8.44365 77.9736 8.2443 77.3873 8.2443C76.8009 8.2443 76.3319 8.44365 75.9801 8.84235Z" fill="white"/>
<path d="M84.6259 14.0489C83.8403 13.1577 83.4474 11.985 83.4474 10.5309C83.4474 9.07687 83.8403 7.9101 84.6259 7.03062C85.4116 6.13941 86.3673 5.69381 87.493 5.69381C88.2201 5.69381 88.9061 5.94593 89.551 6.45016C89.8207 6.67296 90.0435 6.91922 90.2194 7.18892H90.3953V5.95765H93.3855V15.1042H90.3953V13.873H90.2194C90.0552 14.1544 89.8324 14.4065 89.551 14.6293C88.9178 15.1218 88.2318 15.3681 87.493 15.3681C86.3673 15.3681 85.4116 14.9283 84.6259 14.0489ZM87.0533 8.84235C86.7015 9.24104 86.5256 9.80391 86.5256 10.5309C86.5256 11.258 86.7015 11.8208 87.0533 12.2195C87.4051 12.6182 87.8741 12.8176 88.4605 12.8176C89.0468 12.8176 89.5158 12.6182 89.8676 12.2195C90.2194 11.8208 90.3953 11.258 90.3953 10.5309C90.3953 9.80391 90.2194 9.24104 89.8676 8.84235C89.5158 8.44365 89.0468 8.2443 88.4605 8.2443C87.8741 8.2443 87.4051 8.44365 87.0533 8.84235Z" fill="white"/>
<path d="M94.6086 12.114H97.5988C97.6457 12.2899 97.7454 12.4541 97.8978 12.6065C98.2144 12.9231 98.6717 13.0814 99.2698 13.0814C100.091 13.0814 100.501 12.8762 100.501 12.4658C100.501 12.2782 100.384 12.1316 100.149 12.0261C99.9147 11.9088 99.563 11.7915 99.0939 11.6743C98.7069 11.5805 98.4548 11.5218 98.3375 11.4984C98.2203 11.4749 97.974 11.4104 97.5988 11.3049C97.2235 11.1876 96.9538 11.0879 96.7897 11.0059C96.6372 10.9121 96.4203 10.7831 96.1388 10.6189C95.8691 10.443 95.6698 10.2671 95.5408 10.0912C95.4235 9.90358 95.3121 9.67492 95.2066 9.40521C95.1011 9.12378 95.0483 8.82476 95.0483 8.50814C95.0483 7.7342 95.3942 7.07166 96.0861 6.52052C96.7779 5.96938 97.7512 5.69381 99.006 5.69381C100.577 5.69381 101.82 6.20977 102.735 7.24169C103.098 7.6873 103.351 8.19739 103.491 8.77199H100.589C100.519 8.58436 100.437 8.43779 100.343 8.33225C100.073 8.03909 99.6861 7.89251 99.1818 7.89251C98.4783 7.89251 98.1265 8.09772 98.1265 8.50814C98.1265 8.70749 98.2437 8.85994 98.4783 8.96547C98.7128 9.07101 99.0704 9.17068 99.5512 9.26449C100.759 9.54593 101.574 9.79218 101.996 10.0033C103.052 10.5192 103.579 11.3108 103.579 12.3779C103.579 13.2221 103.204 13.9316 102.453 14.5062C101.715 15.0808 100.654 15.3681 99.2698 15.3681C97.5695 15.3681 96.2737 14.8287 95.3825 13.7498C94.9838 13.2691 94.7258 12.7238 94.6086 12.114Z" fill="white"/>
<path d="M104.365 12.114H107.355C107.402 12.2899 107.502 12.4541 107.655 12.6065C107.971 12.9231 108.428 13.0814 109.027 13.0814C109.847 13.0814 110.258 12.8762 110.258 12.4658C110.258 12.2782 110.141 12.1316 109.906 12.0261C109.671 11.9088 109.32 11.7915 108.851 11.6743C108.464 11.5805 108.212 11.5218 108.094 11.4984C107.977 11.4749 107.731 11.4104 107.355 11.3049C106.98 11.1876 106.711 11.0879 106.546 11.0059C106.394 10.9121 106.177 10.7831 105.896 10.6189C105.626 10.443 105.427 10.2671 105.298 10.0912C105.18 9.90358 105.069 9.67492 104.963 9.40521C104.858 9.12378 104.805 8.82476 104.805 8.50814C104.805 7.7342 105.151 7.07166 105.843 6.52052C106.535 5.96938 107.508 5.69381 108.763 5.69381C110.334 5.69381 111.577 6.20977 112.492 7.24169C112.855 7.6873 113.107 8.19739 113.248 8.77199H110.346C110.275 8.58436 110.193 8.43779 110.099 8.33225C109.83 8.03909 109.443 7.89251 108.939 7.89251C108.235 7.89251 107.883 8.09772 107.883 8.50814C107.883 8.70749 108 8.85994 108.235 8.96547C108.47 9.07101 108.827 9.17068 109.308 9.26449C110.516 9.54593 111.331 9.79218 111.753 10.0033C112.808 10.5192 113.336 11.3108 113.336 12.3779C113.336 13.2221 112.961 13.9316 112.21 14.5062C111.471 15.0808 110.41 15.3681 109.027 15.3681C107.326 15.3681 106.03 14.8287 105.139 13.7498C104.741 13.2691 104.483 12.7238 104.365 12.114Z" fill="white"/>
<path fill-rule="evenodd" clip-rule="evenodd" d="M3.51792 3.51792V14.0717H14.0717L3.51792 3.51792ZM0 0V17.5896H17.5896V0H0Z" fill="#FF6E30"/>
</svg>
